<svg width="32" height="31" xmlns="http://www.w3.org/2000/svg" xmlns:xlink="http://www.w3.org/1999/xlink" xmlns:svgjs="http://svgjs.com/svgjs" viewBox="0.501 0 30.997 31" fill="#262626"><svg xmlns="http://www.w3.org/2000/svg" width="32" height="31" viewBox="1.629 1.127 29.742 29.745"><path paint-order="stroke fill markers" fill-rule="evenodd" d="M31.07 13.006a14.748 14.748 0 0 0-2.24-5.323 14.72 14.72 0 0 0-1.812-2.196 14.75 14.75 0 0 0-2.2-1.817 14.714 14.714 0 0 0-2.527-1.375 14.83 14.83 0 0 0-2.796-.864 14.898 14.898 0 0 0-8.782.864A14.6 14.6 0 0 0 8.186 3.67a14.78 14.78 0 0 0-2.204 1.817c-.668.67-1.28 1.409-1.812 2.196-.537.794-1 1.643-1.37 2.527A14.752 14.752 0 0 0 1.63 16 14.705 14.705 0 0 0 2.8 21.79c.369.882.832 1.732 1.369 2.53a14.816 14.816 0 0 0 4.016 4.009 14.65 14.65 0 0 0 5.318 2.239 14.66 14.66 0 0 0 2.998.304c1.006 0 2.014-.1 2.993-.304.956-.196 1.9-.486 2.796-.864a14.764 14.764 0 0 0 2.527-1.376 14.784 14.784 0 0 0 2.2-1.812 14.85 14.85 0 0 0 4.053-7.524c.2-.974.3-1.984.3-2.993 0-1.005-.1-2.013-.3-2.993zm-1.873 2.865c-.184-.038-4.482-.963-8.845-.415l-.274-.653a40.713 40.713 0 0 0-.844-1.843c5.016-2.048 7.05-4.993 7.077-5.029a12.66 12.66 0 0 1 2.886 7.94zm-4.306-9.402c-.034.05-1.843 2.803-6.637 4.598-2.17-3.989-4.555-7.159-4.746-7.41a12.726 12.726 0 0 1 2.994-.357 12.65 12.65 0 0 1 8.389 3.169zM13.459 3.667v.003l-.04.007s.026-.003.04-.01zm-2.375.847c.164.225 2.516 3.41 4.713 7.318-6.097 1.62-11.39 1.555-11.727 1.551a12.723 12.723 0 0 1 7.014-8.87zM3.799 15.999c0-.135.006-.268.01-.4.224.003 6.503.145 13.04-1.81.364.711.714 1.436 1.032 2.16-.168.044-.334.097-.503.149-6.855 2.215-10.327 8.384-10.327 8.384l.002.006a12.678 12.678 0 0 1-3.254-8.489zm12.703 12.703a12.663 12.663 0 0 1-8.092-2.91c.166.135.285.221.285.221s2.434-5.31 9.967-7.937c.03-.01.056-.019.082-.023 1.79 4.643 2.527 8.531 2.713 9.645a12.675 12.675 0 0 1-4.955 1.004zm7.096-2.17c-.13-.764-.807-4.492-2.472-9.07 4.099-.655 7.651.47 7.917.556a12.682 12.682 0 0 1-5.445 8.514z"/></svg></svg>