<svg width="32" height="27" xmlns="http://www.w3.org/2000/svg" xmlns:xlink="http://www.w3.org/1999/xlink" xmlns:svgjs="http://svgjs.com/svgjs" viewBox="0 0.497 32 26.006" fill="#262626"><svg xmlns="http://www.w3.org/2000/svg" width="32" height="27" viewBox="1.681 1.957 29.637 24.086"><path paint-order="stroke fill markers" fill-rule="evenodd" d="M31.319 4.808c-1.089.484-2.26.811-3.49.956A6.082 6.082 0 0 0 30.5 2.4a12.19 12.19 0 0 1-3.86 1.48A6.081 6.081 0 0 0 16.28 9.424C11.225 9.173 6.747 6.75 3.746 3.068a6.092 6.092 0 0 0 1.882 8.122 6.056 6.056 0 0 1-2.755-.764v.08a6.087 6.087 0 0 0 4.879 5.96 6.16 6.16 0 0 1-2.746.103 6.08 6.08 0 0 0 5.677 4.224 12.188 12.188 0 0 1-7.549 2.603c-.493 0-.976-.029-1.453-.086a17.238 17.238 0 0 0 9.323 2.733c11.184 0 17.301-9.266 17.301-17.3 0-.263-.006-.527-.02-.788a12.369 12.369 0 0 0 3.034-3.147z"/></svg></svg>